<svg version="1.0" xmlns="http://www.w3.org/2000/svg"
 width="1024" height="1024" viewBox="0 0 1024 1024"
 preserveAspectRatio="xMidYMid meet">
<style>
  .logo { fill: #000000; }
  @media (prefers-color-scheme: dark) {
    .logo { fill: #ffffff; }
  }
</style>
<g transform="translate(0,1024) scale(0.1,-0.1)" class="logo" stroke="none">
<path d="M5205 9184 c-533 -48 -870 -133 -1303 -328 -239 -107 -459 -232 -611
-346 -105 -79 -403 -353 -535 -491 -577 -602 -906 -1400 -906 -2197 0 -614
152 -1133 481 -1637 97 -148 252 -335 277 -335 10 0 46 -32 81 -72 35 -39 75
-81 90 -92 14 -11 58 -47 96 -81 144 -126 314 -244 505 -352 90 -52 287 -137
417 -182 415 -143 922 -171 1351 -75 453 101 873 322 1143 600 252 261 407
564 499 975 16 75 30 142 30 149 0 30 -11 -3 -40 -116 -88 -340 -242 -608
-499 -865 -286 -285 -622 -471 -981 -544 -313 -64 -642 -66 -947 -4 -653 130
-1241 544 -1614 1135 -124 196 -261 512 -322 744 -130 492 -111 1116 50 1640
20 63 39 135 43 160 15 81 118 302 237 503 219 372 566 764 948 1072 93 75
429 299 536 357 216 118 323 165 554 244 184 63 471 134 544 134 16 0 33 5 36
10 3 6 3 9 -2 9 -4 -1 -75 -8 -158 -15z"/>
<path d="M5570 8410 c-658 -49 -1279 -288 -1755 -676 -505 -412 -823 -982
-896 -1608 -7 -64 -10 -178 -6 -315 5 -178 10 -237 31 -333 49 -229 106 -383
233 -631 82 -157 107 -189 50 -60 -49 109 -93 254 -124 413 -25 126 -27 154
-27 405 -1 290 7 356 68 576 45 161 150 394 259 574 259 424 638 734 1147 938
272 109 538 172 878 206 422 44 954 -46 1392 -235 888 -384 1619 -1191 1933
-2135 154 -462 209 -969 157 -1465 -24 -234 -47 -351 -125 -634 -15 -57 45 84
88 205 159 446 223 843 214 1323 -5 266 -15 363 -53 542 -101 475 -290 909
-550 1266 -122 168 -208 269 -358 422 -317 323 -540 484 -1041 748 -252 133
74 41 356 -101 399 -200 734 -439 988 -703 71 -74 72 -75 26 -17 -461 584
-1120 1014 -1830 1194 -348 89 -731 125 -1055 101z"/>
<path d="M5538 7260 c-91 -9 -228 -28 -278 -40 -23 -5 29 -8 143 -9 364 -2
708 -93 1017 -269 488 -278 828 -711 985 -1254 163 -567 112 -1287 -130 -1805
-104 -223 -286 -489 -460 -674 -445 -473 -1002 -753 -1650 -830 -144 -18 -606
-18 -750 -1 -364 43 -713 152 -1030 321 -340 181 -723 489 -975 781 -285 331
-546 757 -698 1140 -100 251 -164 482 -219 790 -27 152 -28 163 -28 540 0 370
1 393 28 575 16 105 34 217 42 250 7 33 23 103 35 155 12 52 38 144 57 203 20
59 33 110 31 112 -11 12 -163 -401 -209 -570 -93 -338 -138 -647 -146 -1012
-8 -367 16 -615 92 -939 26 -109 39 -151 101 -319 165 -451 401 -837 748
-1224 61 -68 76 -91 60 -91 -14 0 -203 181 -301 288 -146 160 -280 331 -400
512 -143 215 -315 556 -393 780 -13 36 -27 69 -31 74 -30 34 82 -280 226 -634
55 -134 196 -409 275 -535 184 -293 452 -610 702 -831 559 -495 1302 -816
2043 -885 152 -14 208 -25 202 -42 -6 -18 -111 -34 -294 -47 -251 -17 -528 17
-873 107 -156 40 -336 97 -398 125 -24 11 -46 18 -48 16 -4 -5 117 -62 286
-135 418 -180 851 -268 1325 -268 500 0 924 89 1407 296 75 33 142 59 147 59
26 0 5 -23 -75 -83 -144 -108 -334 -209 -542 -289 -93 -35 -51 -29 89 13 147
44 375 132 484 187 334 167 738 460 994 721 236 241 349 396 556 771 182 328
269 546 339 845 70 306 91 769 47 1055 -60 392 -200 768 -394 1060 -334 504
-898 876 -1485 980 -207 37 -461 48 -654 30z"/>
<path d="M8037 3723 c-24 -79 -127 -293 -183 -381 -20 -30 -70 -119 -111 -196
-41 -78 -84 -156 -95 -173 -11 -18 -17 -33 -14 -33 11 0 184 270 228 356 77
150 195 431 185 440 -2 3 -7 -3 -10 -13z"/>
</g>
</svg>
